<svg xmlns="http://www.w3.org/2000/svg" width="1700" height="900" viewBox="0 0 1700 900">
<rect width="100%" height="100%" fill="#F5F1E8"/>
<text x="850.0" y="72.0" text-anchor="middle" font-family="STIX Two Text, Georgia, serif" font-size="38" font-weight="700" fill="#1F2937">Phase12 Shared Lookup Artifact Reuse</text>
<text x="850.0" y="108.0" text-anchor="middle" font-family="STIX Two Text, Georgia, serif" font-size="21" font-weight="400" fill="#4B5563">Real artifact extracted from the checked decoding family, deduplicated once versus re-verified per step</text>
<text x="850.0" y="136.0" text-anchor="middle" font-family="STIX Two Text, Georgia, serif" font-size="18" font-weight="400" fill="#6B7280">Median of 5 measured runs. Proof bytes count the real nested Phase10 lookup proofs; verify time measures only the Phase12 artifact layer.</text>
<line x1="165" y1="150" x2="213" y2="150" stroke="#2563EB" stroke-width="5" stroke-linecap="round"/>
<circle cx="189" cy="150" r="6" fill="white" stroke="#2563EB" stroke-width="3"/>
<text x="227.0" y="156.0" text-anchor="start" font-family="STIX Two Text, Georgia, serif" font-size="21" font-weight="400" fill="#374151">Deduplicated registry artifact</text>
<line x1="445" y1="150" x2="493" y2="150" stroke="#D97706" stroke-width="5" stroke-linecap="round"/>
<circle cx="469" cy="150" r="6" fill="white" stroke="#D97706" stroke-width="3"/>
<text x="507.0" y="156.0" text-anchor="start" font-family="STIX Two Text, Georgia, serif" font-size="21" font-weight="400" fill="#374151">Independent per-step artifacts</text>
<rect x="90" y="220" width="720" height="390" rx="28" fill="white" stroke="#D7DDE6" stroke-width="2"/>
<text x="450.0" y="266.0" text-anchor="middle" font-family="STIX Two Text, Georgia, serif" font-size="26" font-weight="600" fill="#1F2937">Raw Nested Proof Bytes</text>
<line x1="182" y1="465.5" x2="776" y2="465.5" stroke="#E5E7EB" stroke-width="1.5"/>
<text x="172.0" y="471.5" text-anchor="end" font-family="STIX Two Text, Georgia, serif" font-size="17" font-weight="400" fill="#6B7280">4,026</text>
<line x1="182" y1="409.0" x2="776" y2="409.0" stroke="#E5E7EB" stroke-width="1.5"/>
<text x="172.0" y="415.0" text-anchor="end" font-family="STIX Two Text, Georgia, serif" font-size="17" font-weight="400" fill="#6B7280">8,052</text>
<line x1="182" y1="352.5" x2="776" y2="352.5" stroke="#E5E7EB" stroke-width="1.5"/>
<text x="172.0" y="358.5" text-anchor="end" font-family="STIX Two Text, Georgia, serif" font-size="17" font-weight="400" fill="#6B7280">12,078</text>
<line x1="182" y1="296.0" x2="776" y2="296.0" stroke="#E5E7EB" stroke-width="1.5"/>
<text x="172.0" y="302.0" text-anchor="end" font-family="STIX Two Text, Georgia, serif" font-size="17" font-weight="400" fill="#6B7280">16,104</text>
<line x1="182" y1="522" x2="776" y2="522" stroke="#A9B3C0" stroke-width="2"/>
<line x1="182" y1="296" x2="182" y2="522" stroke="#A9B3C0" stroke-width="2"/>
<line x1="182.0" y1="522" x2="182.0" y2="530" stroke="#A9B3C0" stroke-width="2"/>
<text x="182.0" y="556.0" text-anchor="middle" font-family="STIX Two Text, Georgia, serif" font-size="18" font-weight="400" fill="#374151">1</text>
<line x1="479.0" y1="522" x2="479.0" y2="530" stroke="#A9B3C0" stroke-width="2"/>
<text x="479.0" y="556.0" text-anchor="middle" font-family="STIX Two Text, Georgia, serif" font-size="18" font-weight="400" fill="#374151">2</text>
<line x1="776.0" y1="522" x2="776.0" y2="530" stroke="#A9B3C0" stroke-width="2"/>
<text x="776.0" y="556.0" text-anchor="middle" font-family="STIX Two Text, Georgia, serif" font-size="18" font-weight="400" fill="#374151">3</text>
<text x="479.0" y="582.0" text-anchor="middle" font-family="STIX Two Text, Georgia, serif" font-size="18" font-weight="400" fill="#6B7280">Repeated step references</text>
<path d="M 182.0 446.7 L 479.0 446.7 L 776.0 446.7" fill="none" stroke="#2563EB" stroke-width="5" stroke-linecap="round" stroke-linejoin="round"/>
<circle cx="182.0" cy="446.7" r="7" fill="white" stroke="#2563EB" stroke-width="3"/>
<circle cx="479.0" cy="446.7" r="7" fill="white" stroke="#2563EB" stroke-width="3"/>
<circle cx="776.0" cy="446.7" r="7" fill="white" stroke="#2563EB" stroke-width="3"/>
<text x="770.0" y="434.7" text-anchor="end" font-family="STIX Two Text, Georgia, serif" font-size="16" font-weight="600" fill="#2563EB">5,368 B</text>
<path d="M 182.0 446.7 L 479.0 371.3 L 776.0 296.0" fill="none" stroke="#D97706" stroke-width="5" stroke-linecap="round" stroke-linejoin="round"/>
<circle cx="182.0" cy="446.7" r="7" fill="white" stroke="#D97706" stroke-width="3"/>
<circle cx="479.0" cy="371.3" r="7" fill="white" stroke="#D97706" stroke-width="3"/>
<circle cx="776.0" cy="296.0" r="7" fill="white" stroke="#D97706" stroke-width="3"/>
<text x="770.0" y="284.0" text-anchor="end" font-family="STIX Two Text, Georgia, serif" font-size="16" font-weight="600" fill="#D97706">16,104 B</text>
<rect x="890" y="220" width="720" height="390" rx="28" fill="white" stroke="#D7DDE6" stroke-width="2"/>
<text x="1250.0" y="266.0" text-anchor="middle" font-family="STIX Two Text, Georgia, serif" font-size="26" font-weight="600" fill="#1F2937">Verification Time</text>
<line x1="982" y1="465.5" x2="1576" y2="465.5" stroke="#E5E7EB" stroke-width="1.5"/>
<text x="972.0" y="471.5" text-anchor="end" font-family="STIX Two Text, Georgia, serif" font-size="17" font-weight="400" fill="#6B7280">5.78</text>
<line x1="982" y1="409.0" x2="1576" y2="409.0" stroke="#E5E7EB" stroke-width="1.5"/>
<text x="972.0" y="415.0" text-anchor="end" font-family="STIX Two Text, Georgia, serif" font-size="17" font-weight="400" fill="#6B7280">11.6</text>
<line x1="982" y1="352.5" x2="1576" y2="352.5" stroke="#E5E7EB" stroke-width="1.5"/>
<text x="972.0" y="358.5" text-anchor="end" font-family="STIX Two Text, Georgia, serif" font-size="17" font-weight="400" fill="#6B7280">17.3</text>
<line x1="982" y1="296.0" x2="1576" y2="296.0" stroke="#E5E7EB" stroke-width="1.5"/>
<text x="972.0" y="302.0" text-anchor="end" font-family="STIX Two Text, Georgia, serif" font-size="17" font-weight="400" fill="#6B7280">23.1</text>
<line x1="982" y1="522" x2="1576" y2="522" stroke="#A9B3C0" stroke-width="2"/>
<line x1="982" y1="296" x2="982" y2="522" stroke="#A9B3C0" stroke-width="2"/>
<line x1="982.0" y1="522" x2="982.0" y2="530" stroke="#A9B3C0" stroke-width="2"/>
<text x="982.0" y="556.0" text-anchor="middle" font-family="STIX Two Text, Georgia, serif" font-size="18" font-weight="400" fill="#374151">1</text>
<line x1="1279.0" y1="522" x2="1279.0" y2="530" stroke="#A9B3C0" stroke-width="2"/>
<text x="1279.0" y="556.0" text-anchor="middle" font-family="STIX Two Text, Georgia, serif" font-size="18" font-weight="400" fill="#374151">2</text>
<line x1="1576.0" y1="522" x2="1576.0" y2="530" stroke="#A9B3C0" stroke-width="2"/>
<text x="1576.0" y="556.0" text-anchor="middle" font-family="STIX Two Text, Georgia, serif" font-size="18" font-weight="400" fill="#374151">3</text>
<text x="1279.0" y="582.0" text-anchor="middle" font-family="STIX Two Text, Georgia, serif" font-size="18" font-weight="400" fill="#6B7280">Repeated step references</text>
<path d="M 982.0 447.1 L 1279.0 445.9 L 1576.0 445.2" fill="none" stroke="#2563EB" stroke-width="5" stroke-linecap="round" stroke-linejoin="round"/>
<circle cx="982.0" cy="447.1" r="7" fill="white" stroke="#2563EB" stroke-width="3"/>
<circle cx="1279.0" cy="445.9" r="7" fill="white" stroke="#2563EB" stroke-width="3"/>
<circle cx="1576.0" cy="445.2" r="7" fill="white" stroke="#2563EB" stroke-width="3"/>
<text x="1570.0" y="433.2" text-anchor="end" font-family="STIX Two Text, Georgia, serif" font-size="16" font-weight="600" fill="#2563EB">7.852 ms</text>
<path d="M 982.0 448.4 L 1279.0 368.3 L 1576.0 296.0" fill="none" stroke="#D97706" stroke-width="5" stroke-linecap="round" stroke-linejoin="round"/>
<circle cx="982.0" cy="448.4" r="7" fill="white" stroke="#D97706" stroke-width="3"/>
<circle cx="1279.0" cy="368.3" r="7" fill="white" stroke="#D97706" stroke-width="3"/>
<circle cx="1576.0" cy="296.0" r="7" fill="white" stroke="#D97706" stroke-width="3"/>
<text x="1570.0" y="284.0" text-anchor="end" font-family="STIX Two Text, Georgia, serif" font-size="16" font-weight="600" fill="#D97706">23.1 ms</text>
<text x="850.0" y="842.0" text-anchor="middle" font-family="STIX Two Text, Georgia, serif" font-size="18" font-weight="400" fill="#6B7280">Serialized artifact bytes are tracked in the TSV and remain nearly flat on the deduplicated registry path.</text>
</svg>