<svg xmlns="http://www.w3.org/2000/svg" width="980" height="460" viewBox="0 0 980 460">
<rect width="100%" height="100%" fill="#F8FAFC"/>
<text x="40" y="38" font-family="Arial, sans-serif" font-size="22" font-weight="700" fill="#0F172A">Carry-Aware Experimental Scaling-Law Fit</text>
<text x="40" y="62" font-family="Arial, sans-serif" font-size="13" fill="#475569">Log-log fit over the checked experimental backend grids; not a default-backend claim.</text>
<line x1="92" y1="330.0" x2="872" y2="330.0" stroke="#CBD5E1" stroke-width="1"/>
<text x="80" y="334.0" text-anchor="end" font-family="Arial, sans-serif" font-size="12" fill="#64748B">0.00</text>
<line x1="92" y1="270.9" x2="872" y2="270.9" stroke="#CBD5E1" stroke-width="1"/>
<text x="80" y="274.9" text-anchor="end" font-family="Arial, sans-serif" font-size="12" fill="#64748B">0.25</text>
<line x1="92" y1="211.8" x2="872" y2="211.8" stroke="#CBD5E1" stroke-width="1"/>
<text x="80" y="215.8" text-anchor="end" font-family="Arial, sans-serif" font-size="12" fill="#64748B">0.50</text>
<line x1="92" y1="152.7" x2="872" y2="152.7" stroke="#CBD5E1" stroke-width="1"/>
<text x="80" y="156.7" text-anchor="end" font-family="Arial, sans-serif" font-size="12" fill="#64748B">0.75</text>
<line x1="92" y1="93.6" x2="872" y2="93.6" stroke="#CBD5E1" stroke-width="1"/>
<text x="80" y="97.6" text-anchor="end" font-family="Arial, sans-serif" font-size="12" fill="#64748B">1.00</text>
<line x1="92" y1="70" x2="92" y2="330" stroke="#334155" stroke-width="1.5"/>
<line x1="92" y1="330" x2="872" y2="330" stroke="#334155" stroke-width="1.5"/>
<rect x="144.0" y="245.9" width="44" height="84.1" rx="3" fill="#2563EB"/>
<text x="166.0" y="239.9" text-anchor="middle" font-family="Arial, sans-serif" font-size="11" fill="#0F172A">0.36</text>
<rect x="200.0" y="95.5" width="44" height="234.5" rx="3" fill="#DC2626"/>
<text x="222.0" y="89.5" text-anchor="middle" font-family="Arial, sans-serif" font-size="11" fill="#0F172A">0.99</text>
<rect x="256.0" y="179.6" width="44" height="150.4" rx="3" fill="#059669"/>
<text x="278.0" y="173.6" text-anchor="middle" font-family="Arial, sans-serif" font-size="11" fill="#0F172A">0.64</text>
<text x="222.0" y="358" text-anchor="middle" font-family="Arial, sans-serif" font-size="13" font-weight="700" fill="#0F172A">Default layout</text>
<text x="222.0" y="376" text-anchor="middle" font-family="Arial, sans-serif" font-size="11" fill="#64748B">frontier 1024, ratio 1066.559x</text>
<rect x="404.0" y="245.7" width="44" height="84.3" rx="3" fill="#2563EB"/>
<text x="426.0" y="239.7" text-anchor="middle" font-family="Arial, sans-serif" font-size="11" fill="#0F172A">0.36</text>
<rect x="460.0" y="96.0" width="44" height="234.0" rx="3" fill="#DC2626"/>
<text x="482.0" y="90.0" text-anchor="middle" font-family="Arial, sans-serif" font-size="11" fill="#0F172A">0.99</text>
<rect x="516.0" y="180.3" width="44" height="149.7" rx="3" fill="#059669"/>
<text x="538.0" y="174.3" text-anchor="middle" font-family="Arial, sans-serif" font-size="11" fill="#0F172A">0.63</text>
<text x="482.0" y="358" text-anchor="middle" font-family="Arial, sans-serif" font-size="13" font-weight="700" fill="#0F172A">2x2 layout</text>
<text x="482.0" y="376" text-anchor="middle" font-family="Arial, sans-serif" font-size="11" fill="#64748B">frontier 1024, ratio 917.772x</text>
<rect x="664.0" y="247.1" width="44" height="82.9" rx="3" fill="#2563EB"/>
<text x="686.0" y="241.1" text-anchor="middle" font-family="Arial, sans-serif" font-size="11" fill="#0F172A">0.35</text>
<rect x="720.0" y="95.9" width="44" height="234.1" rx="3" fill="#DC2626"/>
<text x="742.0" y="89.9" text-anchor="middle" font-family="Arial, sans-serif" font-size="11" fill="#0F172A">0.99</text>
<rect x="776.0" y="178.8" width="44" height="151.2" rx="3" fill="#059669"/>
<text x="798.0" y="172.8" text-anchor="middle" font-family="Arial, sans-serif" font-size="11" fill="#0F172A">0.64</text>
<text x="742.0" y="358" text-anchor="middle" font-family="Arial, sans-serif" font-size="13" font-weight="700" fill="#0F172A">3x3 layout</text>
<text x="742.0" y="376" text-anchor="middle" font-family="Arial, sans-serif" font-size="11" fill="#64748B">frontier 1024, ratio 1011.94x</text>
<rect x="102" y="402" width="14" height="14" rx="2" fill="#2563EB"/>
<text x="124" y="414" font-family="Arial, sans-serif" font-size="13" fill="#334155">Typed path slope</text>
<rect x="322" y="402" width="14" height="14" rx="2" fill="#DC2626"/>
<text x="344" y="414" font-family="Arial, sans-serif" font-size="13" fill="#334155">Replay baseline slope</text>
<rect x="542" y="402" width="14" height="14" rx="2" fill="#059669"/>
<text x="564" y="414" font-family="Arial, sans-serif" font-size="13" fill="#334155">Ratio slope</text>
<text x="40" y="430" font-family="Arial, sans-serif" font-size="12" fill="#64748B">Interpretation: replay is near-linear over the checked grid; the typed path grows much more slowly. This is measured-regime evidence, not an asymptotic proof.</text>
</svg>
