<svg xmlns="http://www.w3.org/2000/svg" width="1800" height="980" viewBox="0 0 1800 980">
<rect width="100%" height="100%" fill="#F8FAFC" />
<text x="900.0" y="60.0" text-anchor="middle" font-family="STIX Two Text, Georgia, serif" font-size="32" font-weight="700" fill="#0F172A">Replay Baseline Breakdown</text>
<text x="900.0" y="95.0" text-anchor="middle" font-family="STIX Two Text, Georgia, serif" font-size="16" font-weight="400" fill="#334155">At checked frontiers, replay time is spread across repeated proof checks and commitment rebuilds rather than one dominant equality check.</text>
<rect x="60" y="120" width="1680" height="520" rx="22" fill="#FFFFFF" stroke="#CBD5E1" />
<text x="620.0" y="150.0" text-anchor="middle" font-family="STIX Two Text, Georgia, serif" font-size="20" font-weight="700" fill="#0F172A">Stacked replay baseline at checked frontier</text>
<line x1="120" y1="580" x2="1120" y2="580" stroke="#94A3B8" stroke-width="1.5" />
<line x1="120.0" y1="170" x2="120.0" y2="580" stroke="#E2E8F0" stroke-width="1" />
<text x="120.0" y="608.0" text-anchor="middle" font-family="STIX Two Text, Georgia, serif" font-size="13" font-weight="400" fill="#475569">0 ms</text>
<line x1="320.0" y1="170" x2="320.0" y2="580" stroke="#E2E8F0" stroke-width="1" />
<text x="320.0" y="608.0" text-anchor="middle" font-family="STIX Two Text, Georgia, serif" font-size="13" font-weight="400" fill="#475569">1732 ms</text>
<line x1="520.0" y1="170" x2="520.0" y2="580" stroke="#E2E8F0" stroke-width="1" />
<text x="520.0" y="608.0" text-anchor="middle" font-family="STIX Two Text, Georgia, serif" font-size="13" font-weight="400" fill="#475569">3465 ms</text>
<line x1="720.0" y1="170" x2="720.0" y2="580" stroke="#E2E8F0" stroke-width="1" />
<text x="720.0" y="608.0" text-anchor="middle" font-family="STIX Two Text, Georgia, serif" font-size="13" font-weight="400" fill="#475569">5197 ms</text>
<line x1="920.0" y1="170" x2="920.0" y2="580" stroke="#E2E8F0" stroke-width="1" />
<text x="920.0" y="608.0" text-anchor="middle" font-family="STIX Two Text, Georgia, serif" font-size="13" font-weight="400" fill="#475569">6930 ms</text>
<line x1="1120.0" y1="170" x2="1120.0" y2="580" stroke="#E2E8F0" stroke-width="1" />
<text x="1120.0" y="608.0" text-anchor="middle" font-family="STIX Two Text, Georgia, serif" font-size="13" font-weight="400" fill="#475569">8662 ms</text>
<text x="100.0" y="205.0" text-anchor="end" font-family="STIX Two Text, Georgia, serif" font-size="15" font-weight="400" fill="#0F172A">Default layout</text>
<rect x="120.0" y="170.0" width="235.2" height="70" fill="#1D4ED8" rx="6" />
<rect x="355.2" y="170.0" width="266.7" height="70" fill="#059669" rx="6" />
<rect x="621.9" y="170.0" width="262.3" height="70" fill="#D97706" rx="6" />
<rect x="884.2" y="170.0" width="224.0" height="70" fill="#DC2626" rx="6" />
<rect x="1108.2" y="170.0" width="2.0" height="70" fill="#64748B" rx="6" />
<text x="1145.0" y="200.0" text-anchor="start" font-family="STIX Two Text, Georgia, serif" font-size="15" font-weight="400" fill="#0F172A">8662.1 ms total</text>
<text x="1145.0" y="225.0" text-anchor="start" font-family="STIX Two Text, Georgia, serif" font-size="13" font-weight="400" fill="#475569">1024 proof rechecks, 1,314,668 manifest bytes</text>
<text x="100.0" y="315.0" text-anchor="end" font-family="STIX Two Text, Georgia, serif" font-size="15" font-weight="400" fill="#0F172A">2x2 layout</text>
<rect x="120.0" y="280.0" width="177.9" height="70" fill="#1D4ED8" rx="6" />
<rect x="297.9" y="280.0" width="240.0" height="70" fill="#059669" rx="6" />
<rect x="537.9" y="280.0" width="241.2" height="70" fill="#D97706" rx="6" />
<rect x="779.2" y="280.0" width="198.3" height="70" fill="#DC2626" rx="6" />
<rect x="977.5" y="280.0" width="2.0" height="70" fill="#64748B" rx="6" />
<text x="1145.0" y="310.0" text-anchor="start" font-family="STIX Two Text, Georgia, serif" font-size="15" font-weight="400" fill="#0F172A">7392.3 ms total</text>
<text x="1145.0" y="335.0" text-anchor="start" font-family="STIX Two Text, Georgia, serif" font-size="13" font-weight="400" fill="#475569">1024 proof rechecks, 1,314,668 manifest bytes</text>
<text x="100.0" y="425.0" text-anchor="end" font-family="STIX Two Text, Georgia, serif" font-size="15" font-weight="400" fill="#0F172A">3x3 layout</text>
<rect x="120.0" y="390.0" width="242.3" height="70" fill="#1D4ED8" rx="6" />
<rect x="362.3" y="390.0" width="262.4" height="70" fill="#059669" rx="6" />
<rect x="624.6" y="390.0" width="254.4" height="70" fill="#D97706" rx="6" />
<rect x="879.0" y="390.0" width="220.8" height="70" fill="#DC2626" rx="6" />
<rect x="1099.8" y="390.0" width="2.0" height="70" fill="#64748B" rx="6" />
<text x="1145.0" y="420.0" text-anchor="start" font-family="STIX Two Text, Georgia, serif" font-size="15" font-weight="400" fill="#0F172A">8572.8 ms total</text>
<text x="1145.0" y="445.0" text-anchor="start" font-family="STIX Two Text, Georgia, serif" font-size="13" font-weight="400" fill="#475569">1024 proof rechecks, 1,314,668 manifest bytes</text>
<rect x="130" y="540" width="18" height="18" rx="3" fill="#1D4ED8" />
<text x="158.0" y="554.0" text-anchor="start" font-family="STIX Two Text, Georgia, serif" font-size="13" font-weight="400" fill="#334155">Proof reverify</text>
<rect x="355" y="540" width="18" height="18" rx="3" fill="#059669" />
<text x="383.0" y="554.0" text-anchor="start" font-family="STIX Two Text, Georgia, serif" font-size="13" font-weight="400" fill="#334155">Source-chain commitment</text>
<rect x="580" y="540" width="18" height="18" rx="3" fill="#D97706" />
<text x="608.0" y="554.0" text-anchor="start" font-family="STIX Two Text, Georgia, serif" font-size="13" font-weight="400" fill="#334155">Per-step commitment</text>
<rect x="805" y="540" width="18" height="18" rx="3" fill="#DC2626" />
<text x="833.0" y="554.0" text-anchor="start" font-family="STIX Two Text, Georgia, serif" font-size="13" font-weight="400" fill="#334155">Manifest finalize</text>
<rect x="1030" y="540" width="18" height="18" rx="3" fill="#64748B" />
<text x="1058.0" y="554.0" text-anchor="start" font-family="STIX Two Text, Georgia, serif" font-size="13" font-weight="400" fill="#334155">Equality check</text>
<rect x="60" y="670" width="1680" height="250" rx="22" fill="#FFFFFF" stroke="#CBD5E1" />
<text x="900.0" y="710.0" text-anchor="middle" font-family="STIX Two Text, Georgia, serif" font-size="22" font-weight="700" fill="#0F172A">How to read the breakdown</text>
<text x="120.0" y="770.0" text-anchor="start" font-family="STIX Two Text, Georgia, serif" font-size="16" font-weight="400" fill="#334155">1. The replay baseline is not just canonical serialization and hashing; it also re-verifies each embedded proof.</text>
<text x="120.0" y="810.0" text-anchor="start" font-family="STIX Two Text, Georgia, serif" font-size="16" font-weight="400" fill="#334155">2. Source-chain commitment rebuild and per-step commitment rebuild are both major contributors at the checked frontiers.</text>
<text x="120.0" y="850.0" text-anchor="start" font-family="STIX Two Text, Georgia, serif" font-size="16" font-weight="400" fill="#334155">3. Equality comparison is negligible, so the main verifier gap comes from removing repeated replay work rather than one final compare.</text>
<text x="120.0" y="890.0" text-anchor="start" font-family="STIX Two Text, Georgia, serif" font-size="16" font-weight="400" fill="#334155">4. The strongest paper claim is replay replacement with preserved statement scope, not faster cryptographic verification.</text>
</svg>
